<?xml version="1.0" encoding="UTF-8" standalone="no"?>
<svg
   xmlns:dc="http://purl.org/dc/elements/1.1/"
   xmlns:cc="http://creativecommons.org/ns#"
   xmlns:rdf="http://www.w3.org/1999/02/22-rdf-syntax-ns#"
   xmlns:svg="http://www.w3.org/2000/svg"
   xmlns="http://www.w3.org/2000/svg"
   xmlns:xlink="http://www.w3.org/1999/xlink"
   xmlns:sodipodi="http://sodipodi.sourceforge.net/DTD/sodipodi-0.dtd"
   xmlns:inkscape="http://www.inkscape.org/namespaces/inkscape"
   width="200"
   height="240"
   id="svg5215"
   sodipodi:version="0.32"
   inkscape:version="0.48.4 r9939"
   inkscape:output_extension="org.inkscape.output.svg.inkscape"
   sodipodi:docname="Mouse.svg"
   version="1.0"
   inkscape:export-filename="C:\Users\Holger\Documents\Visual Studio 2013\Projects\MouseMonitorWPF\MouseMonitorWPF\res\mouse_scrldwn.1.png"
   inkscape:export-xdpi="90"
   inkscape:export-ydpi="90">
  <metadata
     id="metadata5462">
    <rdf:RDF>
      <cc:Work
         rdf:about="">
        <dc:format>image/svg+xml</dc:format>
        <dc:type
           rdf:resource="http://purl.org/dc/dcmitype/StillImage" />
        <dc:title />
      </cc:Work>
    </rdf:RDF>
  </metadata>
  <defs
     id="defs5460">
    <linearGradient
       id="linearGradient3878">
      <stop
         style="stop-color:#ffd19b;stop-opacity:0.75418997;"
         offset="0"
         id="stop3880" />
      <stop
         style="stop-color:#a6621e;stop-opacity:0.59217876;"
         offset="1"
         id="stop3882" />
    </linearGradient>
    <linearGradient
       id="linearGradient5322">
      <stop
         id="stop5324"
         offset="0"
         style="stop-color:#a4a4a4;stop-opacity:1;" />
      <stop
         id="stop5326"
         offset="1"
         style="stop-color:#626262;stop-opacity:1;" />
    </linearGradient>
    <linearGradient
       id="linearGradient5238">
      <stop
         style="stop-color:#545454;stop-opacity:1;"
         offset="0"
         id="stop5240" />
      <stop
         style="stop-color:#f8f8f8;stop-opacity:1;"
         offset="1"
         id="stop5242" />
    </linearGradient>
    <linearGradient
       id="linearGradient3798"
       paint="solid">
      <stop
         style="stop-color:#000000;stop-opacity:1;"
         offset="0"
         id="stop3800" />
    </linearGradient>
    <linearGradient
       id="linearGradient3790">
      <stop
         style="stop-color:#d7d7d7;stop-opacity:1;"
         offset="0"
         id="stop3792" />
      <stop
         style="stop-color:#d9d9d9;stop-opacity:1;"
         offset="1"
         id="stop3794" />
    </linearGradient>
    <linearGradient
       id="linearGradient3780">
      <stop
         style="stop-color:#ffffff;stop-opacity:1;"
         offset="0"
         id="stop3782" />
      <stop
         style="stop-color:#c6c6c6;stop-opacity:1;"
         offset="1"
         id="stop3784" />
    </linearGradient>
    <linearGradient
       id="linearGradient3772">
      <stop
         style="stop-color:#ebebeb;stop-opacity:1;"
         offset="0"
         id="stop3774" />
      <stop
         style="stop-color:#afafaf;stop-opacity:1;"
         offset="1"
         id="stop3776" />
    </linearGradient>
    <inkscape:perspective
       sodipodi:type="inkscape:persp3d"
       inkscape:vp_x="0 : 765.35431 : 1"
       inkscape:vp_y="0 : 1000 : 0"
       inkscape:vp_z="1530.7086 : 765.35431 : 1"
       inkscape:persp3d-origin="765.35431 : 510.23621 : 1"
       id="perspective5464" />
    <radialGradient
       inkscape:collect="always"
       xlink:href="#linearGradient3780"
       id="radialGradient3788"
       cx="176.21147"
       cy="1282.942"
       fx="176.21147"
       fy="1282.942"
       r="140.67999"
       gradientTransform="matrix(0.77712316,0.03599016,-0.02691438,0.58115293,73.803039,533.67545)"
       gradientUnits="userSpaceOnUse" />
    <radialGradient
       inkscape:collect="always"
       xlink:href="#linearGradient3790"
       id="radialGradient3796"
       cx="147.56482"
       cy="1309.1934"
       fx="147.56482"
       fy="1309.1934"
       r="30.375599"
       gradientTransform="matrix(-0.65264094,0.49579087,-0.60826464,-0.80069729,1040.2077,2284.2996)"
       gradientUnits="userSpaceOnUse" />
    <linearGradient
       inkscape:collect="always"
       xlink:href="#linearGradient5238"
       id="linearGradient5246"
       x1="187.4397"
       y1="1284.4476"
       x2="127.74043"
       y2="1324.2533"
       gradientUnits="userSpaceOnUse" />
    <radialGradient
       inkscape:collect="always"
       xlink:href="#linearGradient3780-7"
       id="radialGradient3788-1"
       cx="176.21147"
       cy="1282.942"
       fx="176.21147"
       fy="1282.942"
       r="140.67999"
       gradientTransform="matrix(0.77712316,0.03599016,-0.02691438,0.58115293,73.803039,533.67545)"
       gradientUnits="userSpaceOnUse" />
    <linearGradient
       id="linearGradient3780-7">
      <stop
         style="stop-color:#ffffff;stop-opacity:0;"
         offset="0"
         id="stop3782-4" />
      <stop
         style="stop-color:#000000;stop-opacity:0.46368715;"
         offset="1"
         id="stop3784-0" />
    </linearGradient>
    <radialGradient
       r="140.67999"
       fy="1261.989"
       fx="171.62138"
       cy="1261.989"
       cx="171.62138"
       gradientTransform="matrix(1.1552576,0.42252432,-0.36148782,0.98837277,438.23382,-64.494752)"
       gradientUnits="userSpaceOnUse"
       id="radialGradient5263"
       xlink:href="#linearGradient3780-7"
       inkscape:collect="always" />
    <radialGradient
       inkscape:collect="always"
       xlink:href="#linearGradient3780"
       id="radialGradient5288"
       cx="196.8138"
       cy="1111.4694"
       fx="196.8138"
       fy="1111.4694"
       r="140.47852"
       gradientTransform="matrix(1,0,0,1.0726287,0,-80.596341)"
       gradientUnits="userSpaceOnUse" />
    <radialGradient
       inkscape:collect="always"
       xlink:href="#linearGradient3780-7"
       id="radialGradient5294"
       gradientUnits="userSpaceOnUse"
       gradientTransform="matrix(1.330122,0.28635917,-0.39106411,1.8164703,376.56133,-951.24535)"
       cx="191.84671"
       cy="1112.1631"
       fx="191.84671"
       fy="1112.1631"
       r="140.47852" />
    <radialGradient
       inkscape:collect="always"
       xlink:href="#linearGradient3780"
       id="radialGradient5308"
       cx="189.34453"
       cy="1051.4962"
       fx="189.34453"
       fy="1051.4962"
       r="96.953156"
       gradientTransform="matrix(0.83368681,0.05527146,-0.14915085,2.249716,187.64154,-1332.4475)"
       gradientUnits="userSpaceOnUse" />
    <radialGradient
       inkscape:collect="always"
       xlink:href="#linearGradient3780-7"
       id="radialGradient5312"
       gradientUnits="userSpaceOnUse"
       gradientTransform="matrix(1.4017021,0.36937738,-0.70532097,2.6765307,680.76162,-1829.7392)"
       cx="169.1593"
       cy="1052.6565"
       fx="169.1593"
       fy="1052.6565"
       r="96.953156" />
    <radialGradient
       inkscape:collect="always"
       xlink:href="#linearGradient5322"
       id="radialGradient5320"
       cx="141.30963"
       cy="1016.2702"
       fx="141.30963"
       fy="1016.2702"
       r="17.853453"
       gradientTransform="matrix(1,0,0,2.7238092,0,-1751.8559)"
       gradientUnits="userSpaceOnUse" />
    <radialGradient
       inkscape:collect="always"
       xlink:href="#linearGradient3780-0"
       id="radialGradient3788-6"
       cx="176.21147"
       cy="1282.942"
       fx="176.21147"
       fy="1282.942"
       r="140.67999"
       gradientTransform="matrix(0.77712316,0.03599016,-0.02691438,0.58115293,73.803039,533.67545)"
       gradientUnits="userSpaceOnUse" />
    <linearGradient
       id="linearGradient3780-0">
      <stop
         style="stop-color:#ffffff;stop-opacity:1;"
         offset="0"
         id="stop3782-3" />
      <stop
         style="stop-color:#c6c6c6;stop-opacity:1;"
         offset="1"
         id="stop3784-6" />
    </linearGradient>
    <radialGradient
       inkscape:collect="always"
       xlink:href="#linearGradient3780-0"
       id="radialGradient5288-2"
       cx="196.8138"
       cy="1111.4694"
       fx="196.8138"
       fy="1111.4694"
       r="140.47852"
       gradientTransform="matrix(1,0,0,1.0726287,0,-80.596341)"
       gradientUnits="userSpaceOnUse" />
    <linearGradient
       id="linearGradient5354">
      <stop
         style="stop-color:#ffffff;stop-opacity:1;"
         offset="0"
         id="stop5356" />
      <stop
         style="stop-color:#c6c6c6;stop-opacity:1;"
         offset="1"
         id="stop5358" />
    </linearGradient>
    <radialGradient
       inkscape:collect="always"
       xlink:href="#linearGradient3780-0"
       id="radialGradient5308-4"
       cx="189.34453"
       cy="1051.4962"
       fx="189.34453"
       fy="1051.4962"
       r="96.953156"
       gradientTransform="matrix(0.83368681,0.05527146,-0.14915085,2.249716,187.64154,-1332.4475)"
       gradientUnits="userSpaceOnUse" />
    <linearGradient
       id="linearGradient5361">
      <stop
         style="stop-color:#ffffff;stop-opacity:1;"
         offset="0"
         id="stop5363" />
      <stop
         style="stop-color:#c6c6c6;stop-opacity:1;"
         offset="1"
         id="stop5365" />
    </linearGradient>
    <radialGradient
       inkscape:collect="always"
       xlink:href="#linearGradient5322-8"
       id="radialGradient5320-5"
       cx="141.30963"
       cy="1016.2702"
       fx="141.30963"
       fy="1016.2702"
       r="17.853453"
       gradientTransform="matrix(1,0,0,2.7238092,0,-1751.8559)"
       gradientUnits="userSpaceOnUse" />
    <linearGradient
       id="linearGradient5322-8">
      <stop
         id="stop5324-8"
         offset="0"
         style="stop-color:#a4a4a4;stop-opacity:1;" />
      <stop
         id="stop5326-1"
         offset="1"
         style="stop-color:#626262;stop-opacity:1;" />
    </linearGradient>
    <radialGradient
       inkscape:collect="always"
       xlink:href="#linearGradient3790-1"
       id="radialGradient3796-2"
       cx="147.56482"
       cy="1309.1934"
       fx="147.56482"
       fy="1309.1934"
       r="30.375599"
       gradientTransform="matrix(-0.65264094,0.49579087,-0.60826464,-0.80069729,1040.2077,2284.2996)"
       gradientUnits="userSpaceOnUse" />
    <linearGradient
       id="linearGradient3790-1">
      <stop
         style="stop-color:#d7d7d7;stop-opacity:1;"
         offset="0"
         id="stop3792-4" />
      <stop
         style="stop-color:#d9d9d9;stop-opacity:1;"
         offset="1"
         id="stop3794-9" />
    </linearGradient>
    <linearGradient
       inkscape:collect="always"
       xlink:href="#linearGradient5238-2"
       id="linearGradient5246-8"
       x1="187.4397"
       y1="1284.4476"
       x2="127.74043"
       y2="1324.2533"
       gradientUnits="userSpaceOnUse" />
    <linearGradient
       id="linearGradient5238-2">
      <stop
         style="stop-color:#545454;stop-opacity:1;"
         offset="0"
         id="stop5240-4" />
      <stop
         style="stop-color:#f8f8f8;stop-opacity:1;"
         offset="1"
         id="stop5242-5" />
    </linearGradient>
    <radialGradient
       r="140.67999"
       fy="1261.989"
       fx="171.62138"
       cy="1261.989"
       cx="171.62138"
       gradientTransform="matrix(1.1552576,0.42252432,-0.36148782,0.98837277,438.23382,-64.494752)"
       gradientUnits="userSpaceOnUse"
       id="radialGradient5263-2"
       xlink:href="#linearGradient3780-7-9"
       inkscape:collect="always" />
    <linearGradient
       id="linearGradient3780-7-9">
      <stop
         style="stop-color:#ffffff;stop-opacity:0;"
         offset="0"
         id="stop3782-4-9" />
      <stop
         style="stop-color:#000000;stop-opacity:0.24022347;"
         offset="1"
         id="stop3784-0-8" />
    </linearGradient>
    <radialGradient
       inkscape:collect="always"
       xlink:href="#linearGradient3780-7-9"
       id="radialGradient5294-3"
       gradientUnits="userSpaceOnUse"
       gradientTransform="matrix(1.330122,0.28635917,-0.39106411,1.8164703,376.56133,-951.24535)"
       cx="191.84671"
       cy="1112.1631"
       fx="191.84671"
       fy="1112.1631"
       r="140.47852" />
    <linearGradient
       id="linearGradient5384">
      <stop
         style="stop-color:#ffffff;stop-opacity:0;"
         offset="0"
         id="stop5386" />
      <stop
         style="stop-color:#000000;stop-opacity:0.46368715;"
         offset="1"
         id="stop5388" />
    </linearGradient>
    <radialGradient
       inkscape:collect="always"
       xlink:href="#linearGradient3780-7-9"
       id="radialGradient5312-8"
       gradientUnits="userSpaceOnUse"
       gradientTransform="matrix(1.4017021,0.36937738,-0.70532097,2.6765307,680.76162,-1829.7392)"
       cx="169.1593"
       cy="1052.6565"
       fx="169.1593"
       fy="1052.6565"
       r="96.953156" />
    <linearGradient
       id="linearGradient5391">
      <stop
         style="stop-color:#ffffff;stop-opacity:0;"
         offset="0"
         id="stop5393" />
      <stop
         style="stop-color:#000000;stop-opacity:0.46368715;"
         offset="1"
         id="stop5395" />
    </linearGradient>
    <radialGradient
       inkscape:collect="always"
       xlink:href="#linearGradient3780-7-9"
       id="radialGradient5397"
       gradientUnits="userSpaceOnUse"
       gradientTransform="matrix(1.4017021,0.36937738,-0.70532097,2.6765307,680.76162,-1829.7392)"
       cx="169.1593"
       cy="1052.6565"
       fx="169.1593"
       fy="1052.6565"
       r="96.953156" />
    <linearGradient
       id="linearGradient5399">
      <stop
         style="stop-color:#ffffff;stop-opacity:0;"
         offset="0"
         id="stop5401" />
      <stop
         style="stop-color:#000000;stop-opacity:0.46368715;"
         offset="1"
         id="stop5403" />
    </linearGradient>
    <radialGradient
       r="96.953156"
       fy="1052.6565"
       fx="169.1593"
       cy="1052.6565"
       cx="169.1593"
       gradientTransform="matrix(1.4017021,0.36937738,-0.70532097,2.6765307,680.76162,-1829.7392)"
       gradientUnits="userSpaceOnUse"
       id="radialGradient5417"
       xlink:href="#linearGradient3780-7-9"
       inkscape:collect="always" />
    <radialGradient
       inkscape:collect="always"
       xlink:href="#linearGradient3780-7-9-9"
       id="radialGradient5312-8-6"
       gradientUnits="userSpaceOnUse"
       gradientTransform="matrix(1.4017021,0.36937738,-0.70532097,2.6765307,680.76162,-1829.7392)"
       cx="169.1593"
       cy="1052.6565"
       fx="169.1593"
       fy="1052.6565"
       r="96.953156" />
    <linearGradient
       id="linearGradient3780-7-9-9">
      <stop
         style="stop-color:#bc1616;stop-opacity:1;"
         offset="0"
         id="stop3782-4-9-8" />
      <stop
         style="stop-color:#000000;stop-opacity:0;"
         offset="1"
         id="stop3784-0-8-6" />
    </linearGradient>
    <radialGradient
       r="96.953156"
       fy="1016.9982"
       fx="161.82733"
       cy="1016.9982"
       cx="161.82733"
       gradientTransform="matrix(1.0062106,-0.31269784,0.28875311,0.9295279,-393.74741,-517.21813)"
       gradientUnits="userSpaceOnUse"
       id="radialGradient5545"
       xlink:href="#linearGradient3780-7-9-9"
       inkscape:collect="always" />
    <radialGradient
       inkscape:collect="always"
       xlink:href="#linearGradient3780-7-9-3"
       id="radialGradient5312-8-2"
       gradientUnits="userSpaceOnUse"
       gradientTransform="matrix(1.4017021,0.36937738,-0.70532097,2.6765307,680.76162,-1829.7392)"
       cx="169.1593"
       cy="1052.6565"
       fx="169.1593"
       fy="1052.6565"
       r="96.953156" />
    <linearGradient
       id="linearGradient3780-7-9-3">
      <stop
         style="stop-color:#ffffff;stop-opacity:0;"
         offset="0"
         id="stop3782-4-9-82" />
      <stop
         style="stop-color:#000000;stop-opacity:0.46368715;"
         offset="1"
         id="stop3784-0-8-62" />
    </linearGradient>
    <radialGradient
       r="96.953156"
       fy="1028.3088"
       fx="107.15068"
       cy="1028.3088"
       cx="107.15068"
       gradientTransform="matrix(0.56441544,-0.52051883,0.68865541,0.74702678,-742.59185,-315.02357)"
       gradientUnits="userSpaceOnUse"
       id="radialGradient5545-7"
       xlink:href="#linearGradient3780-7-9-9"
       inkscape:collect="always" />
    <radialGradient
       inkscape:collect="always"
       xlink:href="#linearGradient5322-8-8"
       id="radialGradient5320-5-7"
       cx="141.30963"
       cy="1016.2702"
       fx="141.30963"
       fy="1016.2702"
       r="17.853453"
       gradientTransform="matrix(1,0,0,2.7238092,0,-1751.8559)"
       gradientUnits="userSpaceOnUse" />
    <linearGradient
       id="linearGradient5322-8-8">
      <stop
         id="stop5324-8-2"
         offset="0"
         style="stop-color:#ff4949;stop-opacity:1;" />
      <stop
         id="stop5326-1-7"
         offset="1"
         style="stop-color:#c40000;stop-opacity:1;" />
    </linearGradient>
    <radialGradient
       r="17.853453"
       fy="1016.2702"
       fx="141.30963"
       cy="1016.2702"
       cx="141.30963"
       gradientTransform="matrix(0.45755468,-0.26678813,0.72653628,1.2465381,-746.29622,-816.39223)"
       gradientUnits="userSpaceOnUse"
       id="radialGradient5596"
       xlink:href="#linearGradient5322-8-8"
       inkscape:collect="always" />
    <radialGradient
       inkscape:collect="always"
       xlink:href="#linearGradient3780-7-9"
       id="radialGradient3872"
       gradientUnits="userSpaceOnUse"
       gradientTransform="matrix(1.165261,0.24222128,-0.37812469,1.8192094,386.91285,-947.66823)"
       cx="176.76735"
       cy="1144.1384"
       fx="176.76735"
       fy="1144.1384"
       r="140.47852" />
    <radialGradient
       inkscape:collect="always"
       xlink:href="#linearGradient3878"
       id="radialGradient3884"
       gradientUnits="userSpaceOnUse"
       gradientTransform="matrix(0.45755468,-0.26678813,0.72653628,1.2465381,-746.29622,-816.39223)"
       cx="141.30963"
       cy="1016.2702"
       fx="141.30963"
       fy="1016.2702"
       r="17.853453" />
  </defs>
  <sodipodi:namedview
     inkscape:window-height="1027"
     inkscape:window-width="1920"
     inkscape:pageshadow="2"
     inkscape:pageopacity="0.0"
     guidetolerance="10.0"
     gridtolerance="10.0"
     objecttolerance="10.0"
     borderopacity="1.0"
     bordercolor="#666666"
     pagecolor="#ffffff"
     id="base"
     showgrid="false"
     showguides="true"
     inkscape:guide-bbox="true"
     inkscape:zoom="5.6568543"
     inkscape:cx="82.8195"
     inkscape:cy="140.84302"
     inkscape:window-x="892"
     inkscape:window-y="82"
     inkscape:current-layer="layer5"
     inkscape:window-maximized="1" />
  <!-- EMR_SETMAPMODE -->
  <!-- EMR_SETWINDOWEXTEX -->
  <!-- EMR_SETVIEWPORTEXTEX -->
  <!-- EMR_SETBKMODE -->
  <!-- EMR_STRETCHDIBITS -->
  <!-- EMR_SETBKCOLOR -->
  <path
     style="fill:#c00000;fill-opacity:1;fill-rule:nonzero;stroke:none"
     id="path5221"
     d=""
     inkscape:connector-curvature="0" />
  <!-- EMR_SETBKCOLOR -->
  <path
     style="fill:#c00000;fill-opacity:1;fill-rule:nonzero;stroke:none"
     id="path5239"
     d=""
     inkscape:connector-curvature="0" />
  <!-- EMR_SETBKCOLOR -->
  <path
     style="fill:#c00000;fill-opacity:1;fill-rule:nonzero;stroke:none"
     id="path5339"
     d=""
     inkscape:connector-curvature="0" />
  <!-- EMR_SETBKCOLOR -->
  <path
     style="fill:#c00000;fill-opacity:1;fill-rule:nonzero;stroke:none"
     id="path5365"
     d=""
     inkscape:connector-curvature="0" />
  <g
     inkscape:groupmode="layer"
     id="layer5"
     inkscape:label="Main"
     style="display:inline"
     transform="translate(0,-360)">
    <g
       id="g7438"
       transform="matrix(0.36973855,-0.21558485,0.21554222,0.36981169,85.785354,134.27536)">
      <g
         id="g7445"
         transform="matrix(1.2375087,0,0,1.2375087,-561.67138,-729.5041)">
        <path
           style="fill:#1b1b1b;fill-opacity:1;stroke:none"
           d="M 68.653179,37.923646 59.637998,43.378689 48.04172,78.995827 38.102054,207.38318 31.47561,307.60815 19.051027,368.90276 5.7981387,406.17651 l 2.4849165,18.22272 72.8908858,-40.58697 183.883829,-4.96983 88.62869,35.61713 -0.82831,-13.25289 -23.19255,-86.97208 -15.73781,-74.54749 4.96984,-46.38511 1.65661,-90.2853 -13.25289,-46.385113 -8.28306,-18.222721 -13.25288,-6.626444 -72.89089,-19.879337 -30.64731,-2.4849108 -19.87933,1.6566148 -32.30391,4.96983 z"
           id="path5328"
           inkscape:connector-curvature="0"
           sodipodi:nodetypes="cccccccccccccccccccccccc"
           transform="matrix(0.80807513,0,0,0.80807513,1.4035053,929.51533)" />
        <path
           inkscape:connector-curvature="0"
           style="fill:url(#radialGradient3788-6);fill-opacity:1;stroke:none"
           d="m 222.40625,1183.9688 c -2.11653,0.048 -4.7097,2.4439 -8.4375,7.9374 -7.99064,12.5569 -83.35585,71.9161 -147.28125,0 -20.547447,-22.8304 -9.131377,37.644 -60.5,73.0313 9.132201,100.4542 71.914756,135.8697 140.40625,142.7187 67.34997,6.8492 148.3969,-74.2089 140.40625,-146.125 -55.7742,-23.6331 -54.39595,-77.7939 -64.59375,-77.5624 z m -74.65625,91.25 c 43.37795,-1.1415 43.36323,67.3437 -1.15625,67.3437 -44.51946,0 -42.2217,-67.3437 1.15625,-67.3437 z"
           id="path5367" />
        <path
           style="fill:url(#radialGradient5288-2);fill-opacity:1;stroke:none"
           d="m 6.1987332,1260.3856 c 30.8211728,-27.3966 26.2550758,-25.1135 44.5194738,-68.4915 14.839824,-35.3873 18.264398,33.1042 87.897423,31.9627 69.63302,0 78.76523,-67.35 92.46351,-35.3873 13.6983,33.1043 13.6983,46.8026 55.93474,69.6331 2.28304,-39.9534 -31.9627,-90.1805 -19.40592,-192.9178 6.84913,-51.3686 -14.83983,-102.73719 -26.25509,-106.16176 1.14153,35.38727 3.42457,43.37796 2.28305,86.75586 -1.14152,44.5195 -36.52879,144.9737 -101.59572,144.9737 -65.06692,0 -100.454193,-98.1712 -98.171141,-144.9737 1.141522,-46.8025 -2.359673,-27.1948 6.772524,-81.98805 -21.688972,18.2644 -28.4615,79.70505 -26.178448,97.96945 10.273723,82.1898 -19.4059244,160.955 -18.2644018,198.6253"
           id="path5369"
           inkscape:connector-curvature="0"
           sodipodi:nodetypes="ccccccccsccsc" />
        <path
           inkscape:connector-curvature="0"
           style="fill:url(#radialGradient5308-4);fill-opacity:1;stroke:none"
           d="m 140.89868,936.19252 c -5.70763,-1.14152 -61.642348,3.42457 -87.897424,26.25509 -20.547447,102.73719 14.839827,224.88039 87.897424,224.88039 73.05758,-1.1415 109.58641,-124.4262 98.17115,-229.44648 -43.37796,-22.83052 -69.45972,-22.57554 -93.43175,-21.43402 -0.53302,21.2945 -0.15937,31.90875 0.16693,40.9893 10.00728,3.25239 14.0525,6.43195 14.86689,10.47819 0.20073,7.85115 0.72934,36.82781 0.72934,51.66761 0,14.8399 -18.14556,15.7775 -18.14556,15.7775 0,0 1.06757,57.7688 -0.074,76.0332 7.99067,3.4246 -11.41525,6.8492 -4.5661,1.1415 0,-10.2737 0.62799,-76.8865 0.62799,-76.8865 0,0 -15.2878,-1.2133 -16.42932,-9.204 -1.14153,-9.1321 -1.7727,-40.3001 0.51035,-53.99832 1.14152,-4.56613 2.13681,-14.89032 18.11816,-14.89032 1.14152,-13.6983 0.215,-27.40397 0.83188,-41.38039"
           id="path5371"
           sodipodi:nodetypes="cccccccscccccccc" />
        <path
           inkscape:connector-curvature="0"
           style="fill:url(#radialGradient5320-5);fill-opacity:1;stroke:none"
           d="m 124.91733,993.26878 c 0,0 -2.28305,26.25502 -1.14153,46.80252 1.14153,20.5474 34.24575,14.8398 35.38728,1.1415 0,-12.5568 0,-33.1042 0,-49.08554 0,-17.12287 -33.10423,-18.26439 -34.24575,1.14152"
           id="path5373" />
        <path
           inkscape:connector-curvature="0"
           style="fill:url(#radialGradient3796-2);fill-opacity:1;stroke:url(#linearGradient5246-8);stroke-width:2.66698885px;stroke-linejoin:round;stroke-opacity:1;stroke-dasharray:none"
           d="m 148.21777,1278.6496 c 41.69461,0 37.81608,61.0875 -0.96962,61.0875 -39.75535,0 -40.725,-61.0875 0.96962,-61.0875"
           id="path5375" />
        <path
           inkscape:connector-curvature="0"
           style="fill:url(#radialGradient5263-2);fill-opacity:1;stroke:none"
           d="m 222.71557,1183.0449 c -2.11652,0.048 -4.70969,2.4439 -8.4375,7.9374 -7.99063,12.5569 -83.35585,71.9161 -147.281253,0 -20.547447,-22.8304 -9.131377,37.644 -60.5000001,73.0313 9.1322011,100.4542 71.9147561,135.8697 140.4062531,142.7187 67.34998,6.8492 148.3969,-74.2089 140.40625,-146.125 -55.7742,-23.6331 -54.39595,-77.7939 -64.59375,-77.5624 z m -74.65625,91.25 c 43.37796,-1.1415 43.36324,67.3437 -1.15625,67.3437 -44.51946,0 -42.22171,-67.3437 1.15625,-67.3437 z"
           id="path5367-9" />
        <path
           id="path5290"
           d="m 6.1987332,1260.3856 c 30.8211728,-27.3966 26.2550758,-25.1135 44.5194738,-68.4915 14.839824,-35.3873 18.264398,33.1042 87.897423,31.9627 69.63302,0 78.76523,-67.35 92.46351,-35.3873 13.6983,33.1043 13.6983,46.8026 55.93474,69.6331 2.28304,-39.9534 -31.9627,-90.1805 -19.40592,-192.9178 6.84913,-51.3686 -14.83983,-102.73719 -26.25509,-106.16176 1.14153,35.38727 3.42457,43.37796 2.28305,86.75586 -1.14152,44.5195 -36.52879,144.9737 -101.59572,144.9737 -65.06692,0 -100.454193,-98.1712 -98.171141,-144.9737 1.141522,-46.8025 -2.24135,-27.1948 6.890847,-81.98805 -21.688972,18.2644 -28.579823,79.70505 -26.296771,97.96945 10.273723,82.1898 -19.4059244,160.955 -18.2644018,198.6253"
           style="fill:url(#radialGradient5294-3);fill-opacity:1;stroke:none"
           inkscape:connector-curvature="0"
           sodipodi:nodetypes="ccccccccsccsc" />
        <path
           inkscape:connector-curvature="0"
           id="path5310"
           d="m 140.89868,936.19252 c -5.70763,-1.14152 -61.642348,3.42457 -87.897424,26.25509 -20.547447,102.73719 14.839827,224.88039 87.897424,224.88039 73.05758,-1.1415 109.58641,-124.4262 98.17115,-229.44648 -43.37796,-22.83052 -69.0857,-21.81123 -93.05773,-20.66971 -2.28305,20.54744 0.003,29.28803 0.23449,39.93614 10.65932,3.07022 12.71026,5.92262 14.57793,10.0366 0,7.9907 0.50915,38.61135 0.50915,53.45115 0,14.8399 -17.22861,14.6733 -17.22861,14.6733 0,0 0.21819,57.8199 -0.92333,76.0843 7.99067,3.4246 -11.41525,6.8492 -4.5661,1.1415 0,-10.2737 0.39031,-76.4788 0.39031,-76.4788 0,0 -15.37286,-1.536 -16.51438,-9.5267 -1.14153,-9.1321 -0.5668,-40.9628 1.71625,-54.66102 1.14152,-4.56613 1.04975,-14.43148 17.0311,-14.43148 1.14152,-13.6983 0.55404,-29.39143 0.7981,-40.85382"
           style="fill:url(#radialGradient5417);fill-opacity:1;stroke:none"
           sodipodi:nodetypes="cccccccscccccccc" />
        <path
           inkscape:connector-curvature="0"
           style="fill:url(#radialGradient5312-8);fill-opacity:1;stroke:none"
           d="m 134.86798,936.22766 c -5.70763,-1.14152 -55.611648,3.38943 -81.866724,26.21995 -20.547447,102.73719 14.839827,224.88039 87.897424,224.88039 73.05758,-1.1415 109.58641,-124.4262 98.17115,-229.44648 -43.37796,-22.83052 -68.4915,-22.83052 -92.46353,-21.689 -2.28305,20.54744 -0.74995,31.27166 -0.88635,40.92156 8.64393,3.02355 15.12207,4.59724 15.12207,11.44637 0,7.9907 0.37281,37.43935 0.37281,52.27915 0,14.8399 -17.55135,14.7582 -17.55135,14.7582 0,0 0.65977,57.5311 -0.48175,75.7955 7.99067,3.4246 -11.41525,6.8492 -4.5661,1.1415 0,-10.2737 0.27146,-76.2749 0.27146,-76.2749 0,0 -15.52667,-4.0839 -16.66819,-12.0746 -1.14153,-9.1321 -1.02468,-38.7715 1.25837,-52.46976 1.14152,-4.56613 2.01797,-14.68646 17.99932,-14.68646 12.98658,-17.73982 1.12336,-29.88718 0.88316,-40.53109"
           id="path5330"
           sodipodi:nodetypes="ccccccsscccccccc" />
        <path
           sodipodi:nodetypes="ccccccccsccsc"
           inkscape:connector-curvature="0"
           style="fill:url(#radialGradient3872);fill-opacity:1;stroke:none"
           d="m 6.1987332,1260.3856 c 30.8211728,-27.3966 26.2550758,-25.1135 44.5194738,-68.4915 14.839824,-35.3873 18.264398,33.1042 87.897423,31.9627 69.63302,0 78.76523,-67.35 92.46351,-35.3873 13.6983,33.1043 13.6983,46.8026 55.93474,69.6331 2.28304,-39.9534 -31.9627,-90.1805 -19.40592,-192.9178 6.84913,-51.3686 -14.83983,-102.73719 -26.25509,-106.16176 1.14153,35.38727 3.42457,43.37796 2.28305,86.75586 -1.14152,44.5195 -36.52879,144.9737 -101.59572,144.9737 -65.06692,0 -100.454193,-98.1712 -98.171141,-144.9737 1.141522,-46.8025 -2.24135,-27.1948 6.890847,-81.98805 -21.688972,18.2644 -28.579823,79.70505 -26.296771,97.96945 10.273723,82.1898 -19.4059244,160.955 -18.2644018,198.6253"
           id="path3870" />
      </g>
    </g>
  </g>
  <g
     inkscape:groupmode="layer"
     id="layer4"
     inkscape:label="Button right"
     style="display:none"
     transform="translate(0,-360)">
    <path
       inkscape:connector-curvature="0"
       style="fill:url(#radialGradient5545);fill-opacity:1;stroke:none;display:inline"
       d="m 101.95418,491.78828 c 33.12336,-20.0133 16.9529,-86.17941 -16.28282,-131.19598 -25.937494,1.12446 -37.42831,7.82445 -48.092342,14.74231 4.43611,10.01253 10.134674,18.58902 10.134674,18.58902 0,0 9.270415,-3.30549 11.097319,-0.17101 2.131402,3.6569 10.656984,18.28447 14.615282,25.07583 3.958324,6.79142 -4.094156,12.18654 -4.094156,12.18654 0,0 14.397457,25.90279 18.746903,34.56595"
       id="path5330-6"
       sodipodi:nodetypes="ccccsscc" />
  </g>
  <!-- EMR_SETBKCOLOR -->
  <g
     inkscape:groupmode="layer"
     id="layer2"
     inkscape:label="Button left"
     style="display:none"
     transform="translate(0,-360)">
    <path
       inkscape:connector-curvature="0"
       style="fill:url(#radialGradient5545-7);fill-opacity:1;stroke:none;display:inline"
       d="M 35.235294,376.10262 C 32.319258,377.10294 7.9440016,394.11531 2.0205754,411.56812 20.022639,464.06713 68.794165,510.52447 102.222,491.03357 100.18104,481.56756 92.691963,473.64893 86.562102,466.56682 83.821741,461.8651 66.466104,432.08754 66.466104,432.08754 c 0,0 -8.443641,3.52334 -11.097351,0.17098 -2.958165,-3.87471 -12.31056,-18.7202 -14.919752,-25.59822 -0.69564,-2.39422 -1.869067,-8.00956 5.443275,-12.27321 -3.131514,-6.5735 -8.961231,-12.97365 -10.656982,-18.28447"
       id="path5330-5"
       sodipodi:nodetypes="ccccccccc" />
  </g>
  <g
     inkscape:groupmode="layer"
     id="layer7"
     inkscape:label="MMB"
     transform="translate(0,-360)"
     style="display:none">
    <path
       inkscape:connector-curvature="0"
       style="fill:url(#radialGradient5596);fill-opacity:1;stroke:none;display:inline"
       d="m 43.082135,406.57444 c 0,0 5.95852,12.62457 11.961573,21.72351 6.003032,9.09886 19.627607,-2.345 16.496093,-8.91852 -3.349342,-5.74655 -8.83006,-15.14997 -13.092849,-22.46376 -4.567275,-7.8362 -20.018753,0.47321 -15.364817,9.65877"
       id="path5373-8" />
  </g>
  <g
     inkscape:groupmode="layer"
     id="layer1"
     inkscape:label="Scroll_up.0"
     style="display:none">
    <path
       transform="translate(0,-360)"
       id="path3875"
       d="m 43.082135,406.57444 c 0,0 5.95852,12.62457 11.961573,21.72351 6.003032,9.09886 19.627607,-2.345 16.496093,-8.91852 -3.349342,-5.74655 -8.83006,-15.14997 -13.092849,-22.46376 -4.567275,-7.8362 -20.018753,0.47321 -15.364817,9.65877"
       style="fill:url(#radialGradient3884);fill-opacity:1;stroke:none;display:inline"
       inkscape:connector-curvature="0" />
    <path
       style="fill:#ff1515;fill-opacity:1;stroke:#ffffff;stroke-width:0.5;stroke-linecap:butt;stroke-linejoin:miter;stroke-miterlimit:4;stroke-opacity:0.64940239;stroke-dasharray:none"
       d="M 51,42 46.786612,54.31434 48.463388,57.277728 52.875,45.25 l 12.25,3.118718 -2.066942,-3.228553 z"
       id="path3886"
       inkscape:connector-curvature="0"
       sodipodi:nodetypes="ccccccc" />
    <path
       sodipodi:nodetypes="ccccccc"
       inkscape:connector-curvature="0"
       id="path3888"
       d="m 47.287689,35.636039 -4.036611,11.518845 1.499999,2.875 4.500001,-11.055456 11.808058,2.411611 -2.066942,-3.228553 z"
       style="fill:#ff1515;fill-opacity:1;stroke:#ffffff;stroke-width:0.5;stroke-linecap:butt;stroke-linejoin:miter;stroke-miterlimit:4;stroke-opacity:0.64940239;stroke-dasharray:none" />
    <path
       style="fill:#ff1515;fill-opacity:1;stroke:#ffffff;stroke-width:0.5;stroke-linecap:butt;stroke-linejoin:miter;stroke-miterlimit:4;stroke-opacity:0.64940239;stroke-dasharray:none"
       d="m 54.977476,48.805903 -4.213388,12.31434 1.676776,2.963388 4.411612,-12.027728 11.808058,2.588388 -1.625,-2.698223 z"
       id="path3890"
       inkscape:connector-curvature="0"
       sodipodi:nodetypes="ccccccc" />
    <path
       sodipodi:nodetypes="ccccccc"
       inkscape:connector-curvature="0"
       id="path3892"
       d="m 59.131728,55.611806 -4.213388,12.31434 2.207106,2.698223 3.881282,-11.762563 10.747398,2.941941 -0.56434,-3.051776 z"
       style="fill:#ff1515;fill-opacity:1;stroke:#ffffff;stroke-width:0.5;stroke-linecap:butt;stroke-linejoin:miter;stroke-miterlimit:4;stroke-opacity:0.64940239;stroke-dasharray:none" />
    <path
       style="fill:#ff1515;fill-opacity:1;stroke:#ffffff;stroke-width:0.5;stroke-linecap:butt;stroke-linejoin:miter;stroke-miterlimit:4;stroke-opacity:0.64940239;stroke-dasharray:none"
       d="m 63.462757,63.124816 -2.650888,8.68934 2.582106,-0.239277 1.943782,-5.200063 4.434898,0.754441 1.06066,-1.989276 z"
       id="path3908"
       inkscape:connector-curvature="0"
       sodipodi:nodetypes="ccccccc" />
  </g>
  <g
     style="display:none"
     inkscape:label="Scroll_up.1"
     id="g3894"
     inkscape:groupmode="layer">
    <path
       inkscape:connector-curvature="0"
       style="fill:url(#radialGradient3884);fill-opacity:1;stroke:none;display:inline"
       d="m 43.082135,406.57444 c 0,0 5.95852,12.62457 11.961573,21.72351 6.003032,9.09886 19.627607,-2.345 16.496093,-8.91852 -3.349342,-5.74655 -8.83006,-15.14997 -13.092849,-22.46376 -4.567275,-7.8362 -20.018753,0.47321 -15.364817,9.65877"
       id="path3896"
       transform="translate(0,-360)" />
    <path
       sodipodi:nodetypes="ccccccc"
       inkscape:connector-curvature="0"
       id="path3898"
       d="m 49.850952,39.87868 -4.5,11.50184 1.963388,3.775888 4.411612,-12.027728 11.823223,2.659771 -2.015165,-3.166053 z"
       style="fill:#ff1515;fill-opacity:1;stroke:#ffffff;stroke-width:0.5;stroke-linecap:butt;stroke-linejoin:miter;stroke-miterlimit:4;stroke-opacity:0.64940239;stroke-dasharray:none" />
    <path
       style="fill:#ff1515;fill-opacity:1;stroke:#ffffff;stroke-width:0.5;stroke-linecap:butt;stroke-linejoin:miter;stroke-miterlimit:4;stroke-opacity:0.64940239;stroke-dasharray:none"
       d="m 47.287689,35.370874 -1.576365,1.119035 -3.34413,7.306218 1.058057,3.40533 4.411613,-10.525126 11.18934,1.704504 -1.713389,-2.786611 -8.017767,-1.039752 z"
       id="path3900"
       inkscape:connector-curvature="0"
       sodipodi:nodetypes="ccccccccc" />
    <path
       sodipodi:nodetypes="ccccccc"
       inkscape:connector-curvature="0"
       id="path3902"
       d="m 53.740039,46.507806 -4.213388,12.31434 1.676776,2.963388 4.411612,-12.027728 12.25,3.649048 -1.801777,-3.140165 z"
       style="fill:#ff1515;fill-opacity:1;stroke:#ffffff;stroke-width:0.5;stroke-linecap:butt;stroke-linejoin:miter;stroke-miterlimit:4;stroke-opacity:0.64940239;stroke-dasharray:none" />
    <path
       style="fill:#ff1515;fill-opacity:1;stroke:#ffffff;stroke-width:0.5;stroke-linecap:butt;stroke-linejoin:miter;stroke-miterlimit:4;stroke-opacity:0.64940239;stroke-dasharray:none"
       d="m 61.960155,60.296388 -4.036611,10.988515 2.599111,0.525126 3.3125,-8.263641 6.737752,1.997397 1.147209,-2.460785 z"
       id="path3904"
       inkscape:connector-curvature="0"
       sodipodi:nodetypes="ccccccc" />
    <path
       style="fill:#ff1515;fill-opacity:1;stroke:#ffffff;stroke-width:0.5;stroke-linecap:butt;stroke-linejoin:miter;stroke-miterlimit:4;stroke-opacity:0.64940239;stroke-dasharray:none"
       d="m 57.894291,53.313709 -4.478553,12.579505 2.030329,3.051776 4.323224,-12.381281 11.542893,3.03033 -1.625,-3.051777 z"
       id="path3906"
       inkscape:connector-curvature="0"
       sodipodi:nodetypes="ccccccc" />
  </g>
  <path
     style="fill:#e00a0e;fill-opacity:1;fill-rule:nonzero;stroke:#ffffff;stroke-width:0.03543307px;stroke-linejoin:round;stroke-opacity:1;stroke-dasharray:none"
     id="path5379"
     d=""
     inkscape:connector-curvature="0" />
  <path
     style="fill:none;stroke:#ffffff;stroke-width:0.03543307px;stroke-linejoin:round;stroke-opacity:1;stroke-dasharray:none"
     d=""
     id="path5393"
     inkscape:connector-curvature="0" />
  <!-- EMR_SETBKCOLOR -->
  <path
     style="fill:none;stroke:#ffffff;stroke-width:1.41732287px;stroke-linejoin:round;stroke-opacity:1;stroke-dasharray:none"
     d=""
     id="path5397"
     inkscape:connector-curvature="0" />
  <!-- EMR_SETBKCOLOR -->
  <!-- EMR_SETBKCOLOR -->
  <!-- EMR_SETBKCOLOR -->
  <!-- EMR_SETBKCOLOR -->
  <path
     style="fill:#ffffff;fill-opacity:1;fill-rule:nonzero;stroke:#ffffff;stroke-width:0.88582677px;stroke-linejoin:round;stroke-opacity:1;stroke-dasharray:none"
     id="path5413"
     d=""
     inkscape:connector-curvature="0" />
  <path
     style="fill:none;stroke:#ffffff;stroke-width:0.88582677px;stroke-linejoin:round;stroke-opacity:1;stroke-dasharray:none"
     d=""
     id="path5423"
     inkscape:connector-curvature="0" />
  <!-- EMR_SETBKCOLOR -->
  <path
     style="fill:none;stroke:none"
     d=""
     id="path5433"
     inkscape:connector-curvature="0" />
  <!-- EMR_SETBKCOLOR -->
  <path
     style="fill:#ffffff;fill-opacity:1;fill-rule:nonzero;stroke:#ffffff;stroke-width:0.10629921px;stroke-linejoin:round;stroke-opacity:1;stroke-dasharray:none"
     id="path5439"
     d=""
     inkscape:connector-curvature="0" />
  <path
     style="fill:none;stroke:#ffffff;stroke-width:0.10629921px;stroke-linejoin:round;stroke-opacity:1;stroke-dasharray:none"
     d=""
     id="path5445"
     inkscape:connector-curvature="0" />
  <!-- EMR_SETBKCOLOR -->
  <g
     id="g6218"
     transform="matrix(0.36973855,-0.21558485,0.21554222,0.36981169,-30.611666,50.148353)" />
  <path
     style="fill:#ffffff;fill-opacity:1;fill-rule:nonzero;stroke:#ffffff;stroke-width:0.10629921px;stroke-linejoin:round;stroke-opacity:1;stroke-dasharray:none"
     id="path5451"
     d=""
     inkscape:connector-curvature="0" />
  <path
     style="fill:none;stroke:#ffffff;stroke-width:0.10629921px;stroke-linejoin:round;stroke-opacity:1;stroke-dasharray:none"
     d=""
     id="path5457"
     inkscape:connector-curvature="0" />
  <g
     style="display:none"
     inkscape:label="Scroll_down.0"
     id="g3924"
     inkscape:groupmode="layer">
    <path
       inkscape:connector-curvature="0"
       style="fill:url(#radialGradient3884);fill-opacity:1;stroke:none;display:inline"
       d="m 43.082135,406.57444 c 0,0 5.95852,12.62457 11.961573,21.72351 6.003032,9.09886 19.627607,-2.345 16.496093,-8.91852 -3.349342,-5.74655 -8.83006,-15.14997 -13.092849,-22.46376 -4.567275,-7.8362 -20.018753,0.47321 -15.364817,9.65877"
       id="path3926"
       transform="translate(0,-360)" />
    <path
       sodipodi:nodetypes="ccccccc"
       inkscape:connector-curvature="0"
       id="path3928"
       d="m 62.813188,63.601305 4.131368,-12.07337 -1.676598,-2.811284 -4.281102,11.607059 -12.423108,-3.124248 1.841796,3.259013 z"
       style="fill:#ff1515;fill-opacity:1;stroke:#ffffff;stroke-width:0.5;stroke-linecap:butt;stroke-linejoin:miter;stroke-miterlimit:4;stroke-opacity:0.64940239;stroke-dasharray:none" />
    <path
       style="fill:#ff1515;fill-opacity:1;stroke:#ffffff;stroke-width:0.5;stroke-linecap:butt;stroke-linejoin:miter;stroke-miterlimit:4;stroke-opacity:0.64940239;stroke-dasharray:none"
       d="m 66.430197,70.019911 4.384691,-11.678347 -1.633742,-2.676075 -4.664343,10.987129 -11.770787,-2.587406 2.018573,3.259013 z"
       id="path3930"
       inkscape:connector-curvature="0"
       sodipodi:nodetypes="ccccccc" />
    <path
       sodipodi:nodetypes="ccccccc"
       inkscape:connector-curvature="0"
       id="path3932"
       d="m 58.937634,56.736853 4.087173,-11.808205 -1.720793,-3.07645 -4.192713,11.607059 -11.768151,-2.764164 1.363617,2.810541 z"
       style="fill:#ff1515;fill-opacity:1;stroke:#ffffff;stroke-width:0.5;stroke-linecap:butt;stroke-linejoin:miter;stroke-miterlimit:4;stroke-opacity:0.64940239;stroke-dasharray:none" />
    <path
       style="fill:#ff1515;fill-opacity:1;stroke:#ffffff;stroke-width:0.5;stroke-linecap:butt;stroke-linejoin:miter;stroke-miterlimit:4;stroke-opacity:0.64940239;stroke-dasharray:none"
       d="m 54.885323,49.869765 4.263949,-11.719818 -2.07824,-2.907609 -4.012042,11.349831 -10.702337,-3.101863 0.783939,3.104045 z"
       id="path3934"
       inkscape:connector-curvature="0"
       sodipodi:nodetypes="ccccccc" />
    <path
       sodipodi:nodetypes="ccccccc"
       inkscape:connector-curvature="0"
       id="path3936"
       d="m 50.666798,42.293012 2.691767,-8.383683 -2.496998,0.112362 -2.021102,4.993725 -4.334768,-1.306619 -1.48795,2.194211 z"
       style="fill:#ff1515;fill-opacity:1;stroke:#ffffff;stroke-width:0.5;stroke-linecap:butt;stroke-linejoin:miter;stroke-miterlimit:4;stroke-opacity:0.64940239;stroke-dasharray:none" />
  </g>
  <g
     inkscape:groupmode="layer"
     id="g3910"
     inkscape:label="Scroll_down.1"
     style="display:inline">
    <path
       transform="translate(0,-360)"
       id="path3912"
       d="m 43.082135,406.57444 c 0,0 5.95852,12.62457 11.961573,21.72351 6.003032,9.09886 19.627607,-2.345 16.496093,-8.91852 -3.349342,-5.74655 -8.83006,-15.14997 -13.092849,-22.46376 -4.567275,-7.8362 -20.018753,0.47321 -15.364817,9.65877"
       style="fill:url(#radialGradient3884);fill-opacity:1;stroke:none;display:inline"
       inkscape:connector-curvature="0" />
    <path
       style="fill:#ff1515;fill-opacity:1;stroke:#ffffff;stroke-width:0.5;stroke-linecap:butt;stroke-linejoin:miter;stroke-miterlimit:4;stroke-opacity:0.64940239;stroke-dasharray:none"
       d="m 64.075429,65.171549 4.138617,-11.477865 -1.84785,-3.192452 -4.180435,11.428824 -12.586423,-2.915673 1.764287,3.245302 z"
       id="path3914"
       inkscape:connector-curvature="0"
       sodipodi:nodetypes="ccccccc" />
    <path
       sodipodi:nodetypes="ccccccccc"
       inkscape:connector-curvature="0"
       id="path3916"
       d="m 66.659037,69.667725 1.571292,-1.126147 3.576243,-8.160945 -1.3386,-2.560825 -4.761752,10.898508 -11.506287,-2.051667 1.770158,2.734645 9.083045,1.180285 z"
       style="fill:#ff1515;fill-opacity:1;stroke:#ffffff;stroke-width:0.5;stroke-linecap:butt;stroke-linejoin:miter;stroke-miterlimit:4;stroke-opacity:0.64940239;stroke-dasharray:none" />
    <path
       style="fill:#ff1515;fill-opacity:1;stroke:#ffffff;stroke-width:0.5;stroke-linecap:butt;stroke-linejoin:miter;stroke-miterlimit:4;stroke-opacity:0.64940239;stroke-dasharray:none"
       d="m 60.156424,58.560066 3.89253,-11.891313 -1.778539,-3.176751 -4.003659,11.826571 -12.31056,-3.284293 1.506591,3.131991 z"
       id="path3918"
       inkscape:connector-curvature="0"
       sodipodi:nodetypes="ccccccc" />
    <path
       sodipodi:nodetypes="ccccccc"
       inkscape:connector-curvature="0"
       id="path3920"
       d="m 51.874079,44.808773 3.677553,-10.343732 -2.203711,-0.513375 -3.36351,7.615613 -6.746709,-1.966928 -0.826718,2.554333 z"
       style="fill:#ff1515;fill-opacity:1;stroke:#ffffff;stroke-width:0.5;stroke-linecap:butt;stroke-linejoin:miter;stroke-miterlimit:4;stroke-opacity:0.64940239;stroke-dasharray:none" />
    <path
       sodipodi:nodetypes="ccccccc"
       inkscape:connector-curvature="0"
       id="path3922"
       d="m 55.971458,51.773006 4.156493,-11.936703 -1.867322,-3.26354 -4.17884,11.95875 -11.291304,-3.066524 1.37361,3.132791 z"
       style="fill:#ff1515;fill-opacity:1;stroke:#ffffff;stroke-width:0.5;stroke-linecap:butt;stroke-linejoin:miter;stroke-miterlimit:4;stroke-opacity:0.64940239;stroke-dasharray:none" />
  </g>
</svg>
